<svg xmlns="http://www.w3.org/2000/svg" width="48" height="48" fill="none" viewBox="0 0 48 48"><g clip-path="url(#clip0)"><path fill="url(#paint0_linear)" d="M15.3999 45.1C9.79991 43.1 -0.900094 34.5 1.19991 21.9C3.29991 9.30002 14.5999 -0.59998 27.9999 2.02656e-05C41.3999 0.60002 47.3999 14.5 47.1999 25.5C46.9999 36.5 39.5999 53.9 15.3999 45.1Z"/><path fill="#FDFDFD" fill-rule="evenodd" d="M23.1611 9.85918C23.454 9.56629 23.9288 9.56629 24.2217 9.85918L33.6969 19.3343C33.9898 19.6272 33.9898 20.1021 33.6969 20.395L24.2217 29.8701C23.9288 30.163 23.454 30.163 23.1611 29.8701L13.6859 20.395C13.393 20.1021 13.3931 19.6272 13.6859 19.3343L23.1611 9.85918ZM23.6914 11.4502L15.2769 19.8646L23.6914 28.2791L32.1059 19.8646L23.6914 11.4502Z" clip-rule="evenodd"/><path fill="#FDFDFD" fill-rule="evenodd" d="M23.6998 28.45C24.114 28.45 24.4498 28.7857 24.4498 29.2V38.5C24.4498 38.9142 24.114 39.25 23.6998 39.25H20.7998C20.3856 39.25 20.0498 38.9142 20.0498 38.5C20.0498 38.0857 20.3856 37.75 20.7998 37.75H22.9498V29.2C22.9498 28.7857 23.2856 28.45 23.6998 28.45Z" clip-rule="evenodd"/><path fill="#FDFDFD" fill-rule="evenodd" d="M32.6533 19.3868C32.9368 19.0848 33.4114 19.0697 33.7134 19.3531L39.6971 24.9685L41.1836 23.5563C41.4839 23.271 41.9587 23.2832 42.2439 23.5835C42.5292 23.8838 42.5171 24.3585 42.2168 24.6438L40.2168 26.5438C39.9286 26.8176 39.4768 26.8189 39.187 26.5469L32.687 20.4469C32.3849 20.1635 32.3699 19.6888 32.6533 19.3868Z" clip-rule="evenodd"/><path fill="#FDFDFD" fill-rule="evenodd" d="M20.0002 19.25C19.4203 19.25 18.9502 19.7201 18.9502 20.3C18.9502 20.8799 19.4203 21.35 20.0002 21.35C20.5801 21.35 21.0502 20.8799 21.0502 20.3C21.0502 19.7201 20.5801 19.25 20.0002 19.25ZM17.4502 20.3C17.4502 18.8917 18.5919 17.75 20.0002 17.75C21.4085 17.75 22.5502 18.8917 22.5502 20.3C22.5502 21.7083 21.4085 22.85 20.0002 22.85C18.5919 22.85 17.4502 21.7083 17.4502 20.3Z" clip-rule="evenodd"/><path fill="#FDFDFD" fill-rule="evenodd" d="M23.8002 16.35C23.6069 16.35 23.4502 16.5067 23.4502 16.7C23.4502 16.8933 23.6069 17.05 23.8002 17.05C23.9935 17.05 24.1502 16.8933 24.1502 16.7C24.1502 16.5067 23.9935 16.35 23.8002 16.35ZM21.9502 16.7C21.9502 15.6782 22.7785 14.85 23.8002 14.85C24.8219 14.85 25.6502 15.6782 25.6502 16.7C25.6502 17.7217 24.8219 18.55 23.8002 18.55C22.7785 18.55 21.9502 17.7217 21.9502 16.7Z" clip-rule="evenodd"/></g><defs><linearGradient id="paint0_linear" x1="1" x2="47" y1="0" y2="48" gradientUnits="userSpaceOnUse"><stop stop-color="#A62E99"/><stop offset="1" stop-color="#35179C"/></linearGradient><clipPath id="clip0"><rect width="48" height="48" fill="#fff"/></clipPath></defs></svg>