<svg xmlns="http://www.w3.org/2000/svg" width="48" height="48" fill="none" viewBox="0 0 48 48"><path fill="url(#paint0_linear)" fill-rule="evenodd" d="M16.7116 1.81525C17.1715 1.36497 17.9172 1.36497 18.3771 1.81525L33.2555 16.3821C33.2701 16.3964 33.2842 16.411 33.2979 16.4258L42.6777 25.0441L45.012 22.8729C45.4836 22.4343 46.229 22.453 46.677 22.9147C47.1249 23.3764 47.1058 24.1062 46.6343 24.5448L43.4938 27.4658C43.0412 27.8867 42.3319 27.8888 41.8767 27.4706L32.4458 18.8054L18.7347 32.2294V45.8469C18.7347 46.4837 18.2075 47 17.557 47H13.0033C12.3529 47 11.8256 46.4837 11.8256 45.8469C11.8256 45.2101 12.3529 44.6939 13.0033 44.6939H16.3794V32.2543L1.83322 18.0127C1.3733 17.5624 1.3733 16.8324 1.83322 16.3821L16.7116 1.81525ZM17.5444 4.26118L4.33145 17.1974L17.5444 30.1337L30.7573 17.1974L17.5444 4.26118ZM11.7487 16.2524C10.8381 16.2524 10.0999 16.9751 10.0999 17.8667C10.0999 18.7582 10.8381 19.4809 11.7487 19.4809C12.6593 19.4809 13.3975 18.7582 13.3975 17.8667C13.3975 16.9751 12.6593 16.2524 11.7487 16.2524ZM7.74455 17.8667C7.74455 15.7015 9.53727 13.9464 11.7487 13.9464C13.9601 13.9464 15.7529 15.7015 15.7529 17.8667C15.7529 20.0318 13.9601 21.787 11.7487 21.787C9.53727 21.787 7.74455 20.0318 7.74455 17.8667ZM17.1654 12.3321C17.1654 12.0349 17.4114 11.794 17.715 11.794C18.0185 11.794 18.2645 12.035 18.2645 12.3321C18.2645 12.6293 18.0185 12.8702 17.715 12.8702C17.4114 12.8702 17.1654 12.6293 17.1654 12.3321ZM17.715 9.48798C16.1106 9.48798 14.81 10.7613 14.81 12.3321C14.81 13.9029 16.1106 15.1763 17.715 15.1763C19.3193 15.1763 20.6199 13.9029 20.6199 12.3321C20.6199 10.7613 19.3193 9.48798 17.715 9.48798Z" clip-rule="evenodd"/><defs><linearGradient id="paint0_linear" x1="24.245" x2="24.245" y1="1.478" y2="47" gradientUnits="userSpaceOnUse"><stop stop-color="#A62E99"/><stop offset="1" stop-color="#4E1AA6"/></linearGradient></defs></svg>